<?xml version="1.0" encoding="UTF-8"?>
<svg version="1.1" xmlns="http://www.w3.org/2000/svg" width="1024" height="1024">
<path d="M0 0 C337.92 0 675.84 0 1024 0 C1024 337.92 1024 675.84 1024 1024 C686.08 1024 348.16 1024 0 1024 C0 686.08 0 348.16 0 0 Z " fill="#FDFDFD" transform="translate(0,0)"/>
<path d="M0 0 C3.22308621 -0.00966008 6.44552091 -0.04074065 9.66845703 -0.07226562 C41.62800107 -0.23476373 76.68061888 5.28420076 100.75830078 28.17773438 C118.22707166 46.73294272 119.77469361 69.90598255 119.64941406 94.04638672 C119.63333464 97.73247285 119.64932781 101.41746276 119.66845703 105.10351562 C119.68931145 127.88106234 117.20575301 150.75793594 101.12548828 168.46289062 C88.63366997 180.35363818 73.64181843 186.8475217 57.25830078 191.24023438 C56.16388672 191.53800781 55.06947266 191.83578125 53.94189453 192.14257812 C11.24050316 202.47107351 -49.3279219 200.84172708 -87.74169922 178.24023438 C-104.82039066 166.96498177 -114.9260011 152.37471652 -119.64794922 132.40820312 C-122.0417082 120.49194431 -122.03322676 108.46875214 -122.05419922 96.36523438 C-122.05778442 95.5265683 -122.06136963 94.68790222 -122.06506348 93.82382202 C-122.11953968 70.09682742 -119.47126657 46.57717883 -102.42749023 28.65820312 C-97.7087597 23.94604973 -92.62171347 20.39292287 -86.74169922 17.24023438 C-85.84322266 16.73234375 -84.94474609 16.22445313 -84.01904297 15.70117188 C-58.19778639 1.8493286 -28.71905836 0.05184725 0 0 Z " fill="#044E8C" transform="translate(261.74169921875,391.759765625)"/>
<path d="M0 0 C23.43 0 46.86 0 71 0 C73.31 3.63 75.62 7.26 78 11 C79.91009018 13.63678234 81.82795098 16.23521169 83.8125 18.8125 C84.8619156 20.19437283 85.91007232 21.57720248 86.95703125 22.9609375 C87.47088379 23.63995117 87.98473633 24.31896484 88.51416016 25.01855469 C93.45828515 31.61180452 98.16156165 38.38505525 102.90234375 45.125 C107.92674736 52.26605344 112.97104548 59.3891004 118.125 66.4375 C118.58640381 67.07034912 119.04780762 67.70319824 119.52319336 68.35522461 C121.25138679 70.7079487 122.93247094 72.93247094 125 75 C125.32572998 74.54898926 125.65145996 74.09797852 125.98706055 73.63330078 C126.97841939 72.26065008 127.96979474 70.88801129 128.96118164 69.51538086 C130.12845502 67.89909269 131.29560669 66.28271661 132.46264648 64.66625977 C135.4176384 60.57366904 138.37415689 56.48221236 141.3359375 52.39453125 C147.09642414 44.43986317 152.81074501 36.45624691 158.4609375 28.42285156 C162.2914607 22.98442306 166.1668586 17.57945158 170.0625 12.1875 C170.88524414 11.04861328 170.88524414 11.04861328 171.72460938 9.88671875 C174.58716603 5.93144648 174.58716603 5.93144648 176 4 C176.3853743 3.31181183 176.7707486 2.62362366 177.1678009 1.9145813 C179 0 179 0 181.97354126 -0.48774719 C183.79769058 -0.47894783 183.79769058 -0.47894783 185.65869141 -0.4699707 C186.66643364 -0.4732563 186.66643364 -0.4732563 187.6945343 -0.47660828 C189.9140453 -0.478919 192.13222854 -0.45267263 194.3515625 -0.42578125 C195.89187194 -0.42085847 197.43218735 -0.41755886 198.97250366 -0.41581726 C202.19898609 -0.40817682 205.42502496 -0.38761243 208.65136719 -0.35668945 C212.79557042 -0.3170481 216.93948535 -0.29907063 221.08385658 -0.28938007 C225.02729794 -0.27942727 228.97066819 -0.25952328 232.9140625 -0.23828125 C234.04928785 -0.23318763 234.04928785 -0.23318763 235.20744705 -0.2279911 C237.33841766 -0.21646504 239.46920145 -0.19795369 241.60009766 -0.17700195 C242.81460602 -0.16715775 244.02911438 -0.15731354 245.28042603 -0.14717102 C248 0 248 0 249 1 C249.09769877 3.45370621 249.12996241 5.8792317 249.12025452 8.33338928 C249.12153615 9.49848334 249.12153615 9.49848334 249.12284368 10.68711466 C249.12450084 13.30974322 249.11897329 15.9323089 249.11352539 18.55493164 C249.11324354 20.42697651 249.1134012 22.29902148 249.1139679 24.17106628 C249.11425597 29.2700276 249.10835769 34.36896562 249.10139394 39.4679215 C249.09516199 44.79041633 249.09455673 50.11291163 249.09336853 55.43540955 C249.09025474 65.52184891 249.08204072 75.60827749 249.07201904 85.6947121 C249.06085937 97.17456379 249.05534782 108.65441598 249.05032361 120.13427174 C249.03985814 143.75618852 249.02151207 167.37809052 249 191 C229.2 191 209.4 191 189 191 C188.67 154.04 188.34 117.08 188 79 C179.14745835 91.06553062 179.14745835 91.06553062 170.375 103.1875 C166.12354155 109.08928198 161.82246965 114.94636369 157.4375 120.75 C154.27367286 124.95043944 151.17447601 129.19860958 148.0625 133.4375 C143.1647694 140.10256123 138.19907546 146.70453464 133.1328125 153.2421875 C130.38202322 156.79906887 127.68650957 160.39442137 125 164 C120.57390071 159.86238018 117.10607588 155.27676348 113.5625 150.375 C112.31649824 148.6679016 111.0704018 146.96087231 109.82421875 145.25390625 C109.1904834 144.38266113 108.55674805 143.51141602 107.90380859 142.61376953 C104.90913978 138.5023404 101.89273815 134.40701149 98.875 130.3125 C98.29306885 129.52214355 97.7111377 128.73178711 97.11157227 127.91748047 C92.95683814 122.28053259 88.76346607 116.67373491 84.55395508 111.07763672 C80.5278377 105.71887919 76.53922583 100.33299475 72.5625 94.9375 C71.98306641 94.15181641 71.40363281 93.36613281 70.80664062 92.55664062 C67.49902353 88.06305605 64.24391496 83.54148094 61 79 C60.67 115.96 60.34 152.92 60 191 C40.2 191 20.4 191 0 191 C0 127.97 0 64.94 0 0 Z " fill="#0F61A7" transform="translate(398,394)"/>
<path d="M0 0 C22.130625 -0.061875 44.26125 -0.12375 67.0625 -0.1875 C77.47695679 -0.22846802 77.47695679 -0.22846802 88.10180664 -0.27026367 C96.69421387 -0.28381348 96.69421387 -0.28381348 100.73875427 -0.28633118 C103.51531934 -0.28908421 106.29170575 -0.30015419 109.06822205 -0.31672668 C130.09031895 -0.43663478 151.77161755 -0.52262128 172 6 C173.24652344 6.39832031 174.49304688 6.79664063 175.77734375 7.20703125 C192.74383364 12.94143546 206.77234705 21.97352224 215.19921875 38.1796875 C220.7132821 49.50602668 221.34958779 60.30963764 221.4375 72.75 C221.45296875 74.57930054 221.45296875 74.57930054 221.46875 76.44555664 C221.3052146 93.19771421 216.25696819 108.62489324 204.44140625 120.8203125 C196.96897562 127.49169857 188.33871066 131.5857198 179 135 C178.03964844 135.35964844 177.07929687 135.71929688 176.08984375 136.08984375 C153.39688329 143.84937217 129.16402186 142.37527872 105.54595947 142.20599365 C99.88793785 142.1693874 94.22981568 142.15604412 88.57170868 142.13863373 C80.04760285 142.10988408 71.52413962 142.05227158 63 142 C63 158.17 63 174.34 63 191 C42.21 191 21.42 191 0 191 C0 127.97 0 64.94 0 0 Z " fill="#F47408" transform="translate(667,394)"/>
<path d="M0 0 C1.9633375 -0.01646743 3.92661738 -0.04363375 5.88964844 -0.08203125 C20.34618403 -0.36217306 37.47219439 -0.42113076 49.02758789 9.76416016 C56.95793274 18.12706927 59.00689829 27.40431548 58.92993164 38.74853516 C58.93280182 39.70474762 58.935672 40.66096008 58.93862915 41.64614868 C58.94065651 43.65456744 58.93522044 45.66300654 58.92260742 47.67138672 C58.90657073 50.71058307 58.92248366 53.74844258 58.94165039 56.78759766 C58.97112129 83.52222896 58.97112129 83.52222896 50.53149414 93.35009766 C38.13134164 105.49603291 19.43209546 105.6967844 3.15649414 105.60009766 C1.21516602 105.61169922 1.21516602 105.61169922 -0.76538086 105.62353516 C-16.65384533 105.59182165 -33.74715645 104.8560308 -45.85131836 93.22900391 C-52.95994824 84.96994359 -53.78053937 74.37202026 -53.73413086 63.90869141 C-53.73604431 62.9415773 -53.73795776 61.9744632 -53.7399292 60.9780426 C-53.74128189 58.94686623 -53.73764995 56.91568093 -53.72924805 54.88452148 C-53.7185238 51.79276972 -53.72918078 48.70159737 -53.74194336 45.60986328 C-53.74062183 43.62613805 -53.73805957 41.64241318 -53.73413086 39.65869141 C-53.73817932 38.74389511 -53.74222778 37.82909882 -53.74639893 36.88658142 C-53.67086982 26.44818213 -51.17230884 17.1911913 -43.68334961 9.52197266 C-31.16276629 -0.65903555 -15.22573868 0.09309301 0 0 Z " fill="#FCFDFD" transform="translate(258.468505859375,437.64990234375)"/>
<path d="M0 0 C15.53993535 -0.16043524 15.53993535 -0.16043524 22.27539062 -0.1953125 C26.83263281 -0.21902436 31.38954712 -0.24675885 35.9465332 -0.30175781 C76.18429243 -0.77405077 76.18429243 -0.77405077 88 8 C93.17573786 13.73527708 93.23259794 18.30987668 93.3125 25.6875 C93.35600586 26.99750977 93.35600586 26.99750977 93.40039062 28.33398438 C93.4595309 34.42543306 92.49564742 38.94024567 89 44 C78.50686814 54.37857802 60.1509478 53.15186198 46.6796875 53.09765625 C45.32634534 53.09578659 43.9730025 53.09436528 42.61965942 53.09336853 C39.0917772 53.08958649 35.56393745 53.0797941 32.03607178 53.06866455 C28.4224913 53.05835666 24.80890362 53.05379584 21.1953125 53.04882812 C14.13017107 53.03870034 7.06514561 53.01911795 0 53 C0 35.51 0 18.02 0 0 Z " fill="#FDFBF8" transform="translate(730,439)"/>
<path d="M0 0 C0.66 0 1.32 0 2 0 C0.46356148 3.68069887 -1.78150945 5.98775204 -4.625 8.75 C-5.85089844 9.94882812 -5.85089844 9.94882812 -7.1015625 11.171875 C-7.72804687 11.77515625 -8.35453125 12.3784375 -9 13 C-9.66 12.67 -10.32 12.34 -11 12 C-9.21479439 9.99388266 -7.42241288 7.9951283 -5.625 6 C-5.11710938 5.42765625 -4.60921875 4.8553125 -4.0859375 4.265625 C-2.76495095 2.80558723 -1.38599201 1.39847843 0 0 Z " fill="#155A94" transform="translate(164,416)"/>
</svg>
